<svg width="18" height="17" viewBox="0 0 18 17" fill="none" xmlns="http://www.w3.org/2000/svg">
<path d="M0.0679855 15.1823L5.16462 10.2872C4.34328 9.20335 3.90144 7.89706 3.90279 6.55658C3.90279 3.04801 6.87542 0.19342 10.5291 0.19342C14.1827 0.19342 17.1554 3.04801 17.1554 6.55658C17.1554 10.0652 14.1827 12.9197 10.5291 12.9197C9.13316 12.921 7.77286 12.4967 6.64416 11.708L1.5467 16.6023L0.0679855 15.1823ZM10.5291 10.91C11.4258 10.9101 12.3025 10.6548 13.0481 10.1765C13.7938 9.69808 14.375 9.0181 14.7182 8.22252C15.0614 7.42694 15.1512 6.55149 14.9763 5.70688C14.8014 4.86228 14.3695 4.08646 13.7354 3.47754C13.1013 2.86861 12.2934 2.45394 11.4139 2.28596C10.5344 2.11798 9.62273 2.20423 8.79425 2.53381C7.96577 2.8634 7.25767 3.4215 6.75951 4.13755C6.26135 4.8536 5.9955 5.69543 5.99558 6.55658C5.99699 7.71078 6.47508 8.81731 7.32497 9.63345C8.17486 10.4496 9.32715 10.9087 10.5291 10.91Z" fill="#B4B5B6"/>
</svg>
