<svg width="512" height="512" viewBox="0 0 512 512" fill="none" xmlns="http://www.w3.org/2000/svg">
<path d="M476.142 38.0892L377.399 232.229L265.746 451.657C264.816 453.487 263.398 455.023 261.649 456.096C259.9 457.169 257.888 457.737 255.835 457.737C253.783 457.737 251.771 457.169 250.022 456.096C248.273 455.023 246.854 453.487 245.925 451.657L134.272 232.229L35.6571 38.4C12.787 61.8922 -0.00714648 93.3854 2.99478e-06 126.171V385.829C2.99478e-06 419.291 13.293 451.383 36.9547 475.045C60.6165 498.707 92.7087 512 126.171 512H385.829C419.291 512 451.383 498.707 475.045 475.045C498.707 451.383 512 419.291 512 385.829V126.171C512.036 93.2491 499.162 61.625 476.142 38.0892Z" fill="#17181B"/>
<path d="M245.925 451.657C246.854 453.487 248.273 455.023 250.022 456.096C251.771 457.169 253.783 457.737 255.835 457.737C257.888 457.737 259.9 457.169 261.649 456.096C263.398 455.023 264.816 453.487 265.746 451.657L377.399 232.229L476.142 38.144C464.405 26.0675 450.365 16.469 434.852 9.917C419.339 3.36501 402.669 -0.00723148 385.829 1.16432e-05H126.171C109.279 -0.00303854 92.559 3.39541 77.0082 9.99273C61.4574 16.59 47.3942 26.2511 35.6572 38.4L134.272 232.229L245.925 451.657Z" fill="white"/>
<path d="M278.802 83.8583L261.01 92.9097C259.46 93.7055 257.742 94.1205 256 94.1205C254.257 94.1205 252.54 93.7055 250.99 92.9097L233.198 83.8583L198.254 66.0846C196.573 65.2056 194.693 64.7774 192.797 64.8418C190.901 64.9063 189.055 65.4611 187.437 66.4521C185.82 67.4431 184.487 68.8365 183.569 70.4963C182.651 72.1561 182.179 74.0256 182.199 75.9223V143.689C182.179 145.586 182.651 147.455 183.569 149.115C184.487 150.775 185.82 152.168 187.437 153.159C189.055 154.15 190.901 154.705 192.797 154.77C194.693 154.834 196.573 154.406 198.254 153.527L233.198 135.753L250.99 126.61C252.543 125.826 254.259 125.417 256 125.417C257.74 125.417 259.456 125.826 261.01 126.61L278.802 135.753L313.746 153.6C315.427 154.479 317.307 154.907 319.203 154.843C321.099 154.778 322.945 154.223 324.562 153.232C326.18 152.241 327.513 150.848 328.431 149.188C329.349 147.528 329.821 145.659 329.801 143.762V75.9223C329.821 74.0256 329.349 72.1561 328.431 70.4963C327.513 68.8365 326.18 67.4431 324.562 66.4521C322.945 65.4611 321.099 64.9063 319.203 64.8418C317.307 64.7774 315.427 65.2056 313.746 66.0846L278.802 83.8583Z" fill="#17181B"/>
<path d="M256 229.175C261.534 229.175 266.021 224.688 266.021 219.154C266.021 213.62 261.534 209.134 256 209.134C250.466 209.134 245.979 213.62 245.979 219.154C245.979 224.688 250.466 229.175 256 229.175Z" fill="#17181B"/>
<path d="M256 329.454C261.534 329.454 266.021 324.967 266.021 319.433C266.021 313.899 261.534 309.412 256 309.412C250.466 309.412 245.979 313.899 245.979 319.433C245.979 324.967 250.466 329.454 256 329.454Z" fill="#17181B"/>
<path d="M256 279.314C261.534 279.314 266.021 274.828 266.021 269.294C266.021 263.76 261.534 259.273 256 259.273C250.466 259.273 245.979 263.76 245.979 269.294C245.979 274.828 250.466 279.314 256 279.314Z" fill="#17181B"/>
</svg>
