<svg width="19" height="12" viewBox="0 0 19 12" fill="none" xmlns="http://www.w3.org/2000/svg">
<path d="M12.1624 2.44025L9.92241 3.60136C9.72724 3.70345 9.51101 3.75669 9.29162 3.75669C9.07224 3.75669 8.856 3.70345 8.66083 3.60136L6.42082 2.44025L2.02138 0.160228C1.80976 0.0474749 1.57306 -0.00745111 1.33439 0.000811898C1.09572 0.00907491 0.863231 0.0802447 0.65961 0.207374C0.455989 0.334503 0.288195 0.51325 0.172602 0.726168C0.0570087 0.939087 -0.00243389 1.1789 7.63308e-05 1.42221V10.1154C-0.00243389 10.3587 0.0570087 10.5985 0.172602 10.8114C0.288195 11.0243 0.455989 11.2031 0.65961 11.3302C0.863231 11.4573 1.09572 11.5285 1.33439 11.5368C1.57306 11.545 1.80976 11.4901 2.02138 11.3774L6.42082 9.09733L8.66083 7.92449C8.85644 7.82387 9.0725 7.77145 9.29162 7.77145C9.51075 7.77145 9.7268 7.82387 9.92241 7.92449L12.1624 9.09733L16.5619 11.3867C16.7735 11.4995 17.0102 11.5544 17.2489 11.5461C17.4875 11.5379 17.72 11.4667 17.9236 11.3396C18.1273 11.2125 18.295 11.0337 18.4106 10.8208C18.5262 10.6079 18.5857 10.3681 18.5832 10.1247V1.42221C18.5857 1.1789 18.5262 0.939087 18.4106 0.726168C18.295 0.51325 18.1273 0.334503 17.9236 0.207374C17.72 0.0802447 17.4875 0.00907491 17.2489 0.000811898C17.0102 -0.00745111 16.7735 0.0474749 16.5619 0.160228L12.1624 2.44025Z" fill="white"/>
</svg>
